<?xml version="1.0" encoding="UTF-8"?>
<svg id="Layer_1" data-name="Layer 1" xmlns="http://www.w3.org/2000/svg" viewBox="0 0 95.5 127">
  <defs>
    <style>
      .cls-1 {
        fill: #c8a9cf;
      }

      .cls-2 {
        fill: #2e1745;
      }
    </style>
  </defs>
  <path class="cls-1" d="m13.288,87.026c.899-2.738,3.467-4.829,7.704-6.272,4.235-1.444,9.768-2.167,16.599-2.167,4.509,0,9.306.356,14.393,1.067,5.084.711,9.646,1.8,13.686,3.266l15.917,19.656c-1.463-.905-3.286-1.703-5.469-2.393-2.185-.689-4.427-1.229-6.73-1.616-2.303-.388-4.417-.582-6.34-.582-1.725,0-3.196.107-4.414.323-1.219.215-2.176.527-2.872.938-.698.409-1.084.915-1.157,1.52-.075.604.219,1.314.882,2.134l.053.064.052.065c1.256,1.552,2.53,3.124,3.822,4.72,1.291,1.594,2.583,3.189,3.875,4.785,1.78,2.197,3.56,4.396,5.34,6.595,1.781,2.198,3.525,4.354,5.236,6.466l-38.314-5.303c-2.967-3.664-6.109-7.544-9.424-11.638-3.317-4.097-6.475-7.996-9.478-11.704-3.141-3.879-4.263-7.188-3.361-9.924Zm68.298,15.55l14.242,17.587h-19.398c-2.301-1.939-4.627-3.89-6.977-5.852-2.352-1.962-4.695-3.912-7.027-5.852-2.334-1.94-4.701-3.902-7.103-5.884h26.262Z"/>
  <path class="cls-2" d="m-.255,45.361V8.54L34.629.175v35.802c0,1.292.288,2.415.867,3.366.577.953,1.393,1.751,2.448,2.397,1.053.647,2.295,1.14,3.723,1.479,1.428.341,3.025.51,4.794.51,1.972,0,3.979-.306,6.018-.918,2.04-.612,3.893-1.461,5.56-2.55,1.665-1.087,2.872-2.346,3.621-3.774v31.008c-2.925,2.312-6.699,4.029-11.322,5.151-4.625,1.122-9.248,1.683-13.872,1.683-7.005,0-13.277-1.14-18.819-3.417-5.543-2.278-9.911-5.575-13.106-9.894C1.342,56.701-.255,51.481-.255,45.361Zm34.986-8.874c.815-3.127,1.614-6.222,2.396-9.282.781-3.06,1.563-6.136,2.346-9.231.781-3.094,1.546-6.171,2.295-9.231h19.891v27.744h-26.928Z"/>
</svg>