<?xml version="1.0" encoding="UTF-8"?>
<svg id="Layer_1" data-name="Layer 1" xmlns="http://www.w3.org/2000/svg" viewBox="0 0 106 125.5">
  <defs>
    <style>
      .cls-1 {
        fill: #2e1745;
      }
    </style>
  </defs>
  <path className="cls-1" d="m.471,76.607V14.516L59.295.412v60.372c0,2.179.486,4.071,1.462,5.676.973,1.606,2.349,2.953,4.128,4.042,1.776,1.091,3.87,1.921,6.277,2.494,2.408.575,5.102.859,8.084.859,3.325,0,6.708-.516,10.148-1.548s6.562-2.464,9.374-4.3c2.809-1.833,4.843-3.956,6.106-6.364v52.288c-4.932,3.899-11.296,6.794-19.093,8.687-7.799,1.892-15.596,2.838-23.392,2.838-11.812,0-22.39-1.922-31.734-5.763-9.347-3.84-16.713-9.4-22.102-16.684C3.164,95.729.471,86.928.471,76.607Zm58.996-14.964c1.376-5.272,2.722-10.492,4.042-15.651,1.316-5.16,2.636-10.348,3.956-15.566,1.316-5.217,2.606-10.406,3.87-15.566h33.54v46.784h-45.408Z"/>
</svg>