<?xml version="1.0" encoding="UTF-8"?>
<svg id="Layer_1" data-name="Layer 1" xmlns="http://www.w3.org/2000/svg" viewBox="0 0 440 96">
  <defs>
    <style>
      .cls-1 {
        fill: #c8a9cf;
      }

      .cls-2 {
        fill: #2e1745;
      }
    </style>
  </defs>
  <g>
    <path class="cls-1" d="m6.861,65.945c.653-1.989,2.52-3.508,5.598-4.557,3.077-1.049,7.097-1.574,12.06-1.574,3.276,0,6.762.259,10.458.775,3.694.517,7.009,1.307,9.944,2.372l11.564,14.281c-1.062-.657-2.387-1.237-3.973-1.738-1.586-.501-3.216-.893-4.89-1.174-1.674-.282-3.209-.423-4.606-.423-1.253,0-2.323.078-3.207.234-.885.157-1.581.384-2.086.682-.507.297-.787.665-.841,1.104-.055.438.16.956.642,1.551l.038.047.038.047c.913,1.127,1.838,2.271,2.777,3.43.938,1.158,1.876,2.317,2.814,3.477,1.294,1.598,2.587,3.194,3.88,4.792,1.294,1.597,2.562,3.163,3.804,4.697l-27.838-3.853c-2.155-2.662-4.438-5.48-6.847-8.456-2.41-2.976-4.705-5.81-6.886-8.503-2.283-2.818-3.098-5.223-2.443-7.211Zm49.623,11.298l10.348,12.778h-14.094c-1.672-1.409-3.361-2.826-5.069-4.252-1.708-1.425-3.41-2.842-5.105-4.251-1.696-1.409-3.416-2.835-5.161-4.275h19.081Z"/>
    <path class="cls-1" d="m71.895,88.33l-9.092-11.228c2.903.908,5.991,1.597,9.262,2.066,3.271.471,6.328.705,9.171.705,1.831,0,3.489-.109,4.974-.328,1.484-.22,2.681-.557,3.591-1.01.908-.455,1.451-1.034,1.627-1.739.176-.704-.129-1.543-.915-2.513-.026-.032-.057-.07-.095-.117-.038-.048-.076-.095-.114-.142s-.083-.102-.133-.164c-.216.626-.688,1.189-1.414,1.691-.727.501-1.662.923-2.804,1.268-1.143.345-2.439.603-3.889.775-1.452.172-3.02.259-4.706.259-2.602,0-5.048-.164-7.338-.493s-4.412-.791-6.363-1.387c-1.952-.595-3.726-1.283-5.323-2.066-1.599-.783-2.994-1.613-4.185-2.49-1.193-.877-2.156-1.77-2.891-2.678-1.217-1.503-1.802-2.818-1.75-3.946.05-1.127.603-2.066,1.656-2.818s2.471-1.322,4.249-1.715c1.779-.391,3.8-.587,6.065-.587,1.879,0,3.864.117,5.959.353,2.093.234,4.235.634,6.426,1.197,2.254,1.534,4.521,3.069,6.8,4.604,2.278,1.534,4.545,3.068,6.8,4.604-1.314-.909-2.614-1.473-3.899-1.691-1.287-.22-2.362-.329-3.229-.329-1.783,0-2.96.242-3.53.729-.572.485-.615,1.025-.133,1.621.482.595,1.383,1.128,2.703,1.598,1.32.47,2.895.704,4.726.704.819,0,1.581-.071,2.287-.211.705-.142,1.207-.385,1.506-.729.299-.345.221-.799-.236-1.362-1.319-1.629-2.644-3.266-3.975-4.909-1.332-1.645-2.669-3.297-4.014-4.957h25.296c2.46,3.038,4.921,6.076,7.381,9.114,2.459,3.037,4.92,6.075,7.38,9.114,1.674,2.066,2.265,3.867,1.773,5.402-.492,1.534-1.801,2.818-3.927,3.853-2.126,1.033-4.866,1.801-8.219,2.302-3.353.501-7.052.752-11.099.752-4.145,0-8.485-.259-13.023-.775-4.538-.518-8.985-1.292-13.338-2.326Z"/>
    <path class="cls-1" d="m132.793,60.895c1.471,1.816,2.948,3.641,4.432,5.474,1.484,1.832,2.961,3.656,4.432,5.473,1.471,1.816,2.942,3.634,4.413,5.449h-25.007c-.482-.595-.964-1.189-1.446-1.785-.482-.595-.964-1.19-1.445-1.784-1.141-1.41-2.29-2.827-3.443-4.252-1.154-1.426-2.308-2.851-3.462-4.275-1.154-1.425-2.314-2.857-3.481-4.299h25.007Zm2.107,18.088c4.624.563,9.235,1.127,13.836,1.69l.11.047c.837,1.034,1.674,2.067,2.511,3.102.836,1.032,1.673,2.066,2.511,3.1.837,1.034,1.674,2.067,2.51,3.101h-25.007c-1.699-2.099-3.411-4.212-5.135-6.342-1.725-2.13-3.45-4.26-5.174-6.39,4.6.564,9.212,1.128,13.837,1.692Z"/>
    <path class="cls-1" d="m160.69,60.895c3.703,4.573,7.405,9.145,11.108,13.718s7.393,9.13,11.07,13.671c1.065,1.315,2.124,2.623,3.177,3.923s2.111,2.607,3.177,3.923h-25.007c-1.725-2.13-3.457-4.268-5.193-6.412-1.737-2.146-3.468-4.283-5.192-6.413-2.004-2.475-4.014-4.956-6.03-7.446-2.016-2.489-4.032-4.979-6.048-7.47-2.017-2.49-4.039-4.987-6.068-7.493h25.007Z"/>
    <path class="cls-1" d="m207.724,60.473c4.459.657,8.709,1.651,12.751,2.983,4.041,1.33,7.708,2.99,11.006,4.979,3.296,1.989,6.023,4.314,8.179,6.977s3.202,4.995,3.14,7c-.064,2.004-1.038,3.672-2.924,5.003-1.886,1.332-4.52,2.333-7.899,3.008-3.383.673-7.338,1.01-11.867,1.01-3.613,0-7.218-.212-10.812-.635-3.595-.423-7.091-1.065-10.486-1.926-3.397-.862-6.614-1.935-9.652-3.218-3.04-1.285-5.792-2.78-8.259-4.487s-4.562-3.625-6.286-5.755c-1.471-1.816-2.424-3.469-2.857-4.956-.435-1.488-.428-2.818.019-3.993.446-1.174,1.301-2.2,2.568-3.077,1.265-.877,2.866-1.605,4.807-2.185,1.94-.579,4.193-1.01,6.76-1.292,2.566-.281,5.343-.423,8.331-.423,4.529,0,9.023.329,13.483.987Zm-6.985,11.768c-.896.203-1.547.47-1.955.799-.409.329-.586.705-.532,1.128.053.422.257.853.612,1.291.355.438.842.861,1.461,1.27.618.405,1.393.782,2.322,1.127.929.345,2.018.618,3.268.821,1.249.204,2.644.307,4.187.307s2.759-.103,3.655-.307c.894-.203,1.516-.477,1.864-.821.346-.345.5-.722.46-1.127-.041-.408-.226-.815-.556-1.223-.71-.877-1.996-1.69-3.857-2.442-1.862-.752-4.286-1.127-7.272-1.127-1.543,0-2.762.101-3.656.305Z"/>
    <path class="cls-1" d="m253.659,90.021c-1.42-1.754-2.84-3.508-4.26-5.261-1.421-1.755-2.841-3.509-4.261-5.262-2.512-3.102-5.021-6.201-7.533-9.303-2.511-3.1-5.021-6.201-7.532-9.302h25.007c1.648,2.036,3.285,4.057,4.908,6.061s3.246,4.009,4.869,6.014c1.547,1.909,3.088,3.812,4.622,5.707,1.534,1.896,3.068,3.79,4.603,5.685,1.535,1.896,3.062,3.782,4.584,5.661h-25.007Zm14.69-16.489c1.846.376,3.812.603,5.9.682,2.086.077,4.016-.023,5.787-.306,1.771-.282,3.051-.799,3.841-1.55l19.644,17.476c-.535.47-1.491.806-2.867,1.01-1.378.204-3.026.251-4.946.141-1.921-.11-3.937-.399-6.052-.869s-4.173-1.15-6.172-2.043c-2-.893-3.762-2.013-5.285-3.358l-14.137-12.639c1.011.596,2.44,1.081,4.287,1.457Z"/>
    <path class="cls-1" d="m317.026,71.747c-.91.156-1.594.383-2.05.682-.459.297-.715.649-.771,1.057-.058.406.106.846.487,1.315l.037.047h39.463c2.307,2.85,3.546,5.316,3.715,7.399.168,2.082-.581,3.805-2.248,5.167-1.668,1.362-4.15,2.373-7.447,3.031-3.299.657-7.236.986-11.813.986-4.481,0-8.964-.329-13.446-.986-4.485-.658-8.748-1.653-12.788-2.983-4.042-1.332-7.717-3-11.026-5.004-3.311-2.005-6.043-4.338-8.198-7s-3.202-4.996-3.138-6.999c.062-2.005,1.037-3.673,2.923-5.003,1.885-1.332,4.524-2.326,7.919-2.983,3.395-.658,7.356-.987,11.886-.987,5.3,0,10.474.47,15.524,1.409,5.048.94,9.636,2.216,13.761,3.829s7.42,3.406,9.885,5.38l-18.49,4.744c-.886-1.033-2.269-1.849-4.146-2.442-1.881-.596-4.096-.893-6.649-.893-1.35,0-2.479.077-3.388.234Zm12.793,7.587c.873-.141,1.563-.345,2.071-.61.507-.267.807-.596.899-.987.092-.392-.064-.838-.47-1.339-.025-.031-.044-.055-.058-.07-.013-.016-.044-.023-.091-.023h-16.189l.076.094c.812,1.002,2.209,1.777,4.195,2.326,1.985.548,4.159.822,6.521.822,1.156,0,2.171-.07,3.045-.212Z"/>
    <path class="cls-1" d="m411.41,60.895c2.333,2.882,4.654,5.747,6.962,8.598,2.308,2.85,4.615,5.699,6.924,8.55,2.435,3.007,4.876,6.021,7.323,9.044s4.889,6.036,7.323,9.043h-25.007c-1.015-1.253-2.111-2.607-3.291-4.063-1.18-1.457-2.276-2.812-3.291-4.063-.025-.032-.057-.056-.093-.07-.038-.017-.067-.009-.089.023-.298.406-.741.767-1.33,1.08-.59.313-1.29.579-2.1.799-.811.219-1.72.391-2.726.517-1.008.125-2.063.219-3.169.282-1.105.062-2.213.094-3.32.094-2.699,0-5.52-.196-8.463-.588s-5.9-.994-8.872-1.809c-2.973-.814-5.832-1.832-8.58-3.053-2.749-1.222-5.293-2.654-7.636-4.299-2.344-1.645-4.353-3.5-6.027-5.567-1.953-2.412-2.979-4.557-3.079-6.436-.101-1.879.557-3.477,1.974-4.792s3.489-2.311,6.222-2.983c2.73-.673,5.951-1.01,9.661-1.01,1.831,0,3.49.055,4.977.164,1.485.11,3.101.29,4.846.54l17.537,14.517c-1.345-1.064-3.001-1.832-4.972-2.302s-3.967-.704-5.991-.704c-1.879,0-3.3.164-4.262.493-.963.328-1.53.759-1.701,1.292-.172.531.01,1.127.542,1.784.71.877,2.043,1.676,4.001,2.396,1.956.72,4.331,1.081,7.126,1.081,1.108,0,2.111-.071,3.009-.212.898-.141,1.642-.353,2.233-.634.591-.282.949-.643,1.077-1.081.125-.439-.052-.955-.533-1.551-1.346-1.66-2.695-3.327-4.052-5.003-1.356-1.675-2.714-3.352-4.071-5.026-1.356-1.676-2.72-3.359-4.089-5.051h25.007Z"/>
  </g>
  <g>
    <path class="cls-2" d="m-.162,36.208V10.216l24.624-5.904v25.272c0,.913.204,1.705.612,2.376.407.673.983,1.236,1.728,1.692.744.457,1.62.805,2.628,1.044,1.008.241,2.135.36,3.384.36,1.392,0,2.808-.216,4.248-.648,1.44-.432,2.747-1.032,3.924-1.8,1.176-.767,2.027-1.656,2.556-2.664v21.888c-2.064,1.632-4.729,2.844-7.992,3.636-3.265.792-6.528,1.188-9.792,1.188-4.944,0-9.372-.804-13.284-2.412-3.913-1.608-6.997-3.936-9.252-6.984C.966,44.212-.162,40.528-.162,36.208Zm24.696-6.264c.576-2.207,1.14-4.392,1.692-6.552.551-2.16,1.104-4.332,1.656-6.516.551-2.184,1.091-4.356,1.62-6.516h14.04v19.584h-19.008Z"/>
    <path class="cls-2" d="m61.361,9.388c4.104-.792,8.219-1.188,12.348-1.188,4.032,0,7.92.385,11.664,1.152,3.744.769,7.092,1.944,10.044,3.528s5.292,3.553,7.02,5.904c1.728,2.352,2.592,5.112,2.592,8.28v27.936h-25.2v-15.12c0-.864-.288-1.559-.864-2.088-.576-.528-1.272-.9-2.088-1.116-.817-.216-1.632-.324-2.448-.324-1.825,0-3.204.36-4.14,1.08-.936.72-1.404,1.537-1.404,2.448s.479,1.741,1.44,2.484c.959.745,2.327,1.116,4.104,1.116.864,0,1.847-.167,2.952-.504,1.104-.335,1.944-1.199,2.52-2.592-1.008,2.353-2.028,4.705-3.06,7.056-1.033,2.353-2.052,4.705-3.06,7.056-1.728.864-3.54,1.476-5.436,1.836-1.896.36-3.78.54-5.652.54-2.257,0-4.428-.3-6.516-.9-2.088-.601-3.96-1.476-5.616-2.628-1.656-1.152-2.964-2.592-3.924-4.32-.96-1.728-1.44-3.744-1.44-6.048,0-1.392.24-2.76.72-4.104.479-1.343,1.199-2.616,2.16-3.816.959-1.199,2.171-2.256,3.636-3.168,1.464-.912,3.204-1.62,5.22-2.124,2.016-.504,4.32-.756,6.912-.756,1.68,0,3.312.133,4.896.396,1.584.265,3.084.661,4.5,1.188,1.416.529,2.688,1.177,3.816,1.944,1.127.768,2.052,1.632,2.772,2.592v-.648c0-1.487-.373-2.772-1.116-3.852-.745-1.08-1.752-1.968-3.024-2.664-1.272-.695-2.736-1.211-4.392-1.548-1.656-.335-3.396-.504-5.22-.504-2.833,0-5.688.36-8.568,1.08-2.88.72-5.4,1.776-7.56,3.168V12.952c3.503-1.584,7.308-2.772,11.412-3.564Z"/>
    <path class="cls-2" d="m107.837,29.872V10.36h24.912v14.256l-.072.072c-4.128.864-8.269,1.728-12.42,2.592-4.152.864-8.292,1.728-12.42,2.592Zm0,25.128v-25.128h24.912v25.128h-24.912Z"/>
    <path class="cls-2" d="m135.628,55V1h24.912v54h-24.912Z"/>
    <path class="cls-2" d="m195.1,57.16c-2.977,0-5.857-.216-8.64-.648-2.784-.432-5.376-1.093-7.776-1.98-2.401-.888-4.584-2.004-6.552-3.348-1.969-1.343-3.648-2.916-5.04-4.716-1.393-1.8-2.473-3.839-3.24-6.12-.769-2.279-1.152-4.812-1.152-7.596,0-3.264.54-6.203,1.62-8.82,1.08-2.616,2.616-4.907,4.608-6.876,1.991-1.968,4.331-3.611,7.02-4.932,2.688-1.32,5.652-2.304,8.892-2.952,3.24-.648,6.66-.972,10.26-.972,4.511,0,8.723.516,12.636,1.548,3.912,1.033,7.344,2.568,10.296,4.608,2.952,2.041,5.268,4.597,6.948,7.668,1.68,3.072,2.52,6.649,2.52,10.728s-.84,7.645-2.52,10.692c-1.681,3.049-3.996,5.592-6.948,7.632-2.952,2.041-6.384,3.564-10.296,4.572-3.913,1.008-8.125,1.512-12.636,1.512Zm.072-19.08c2.976,0,5.087-.576,6.336-1.728,1.248-1.152,1.872-2.4,1.872-3.744,0-.623-.144-1.248-.432-1.872-.288-.623-.745-1.199-1.368-1.728-.625-.527-1.465-.947-2.52-1.26-1.057-.312-2.353-.468-3.888-.468s-2.844.157-3.924.468c-1.08.312-1.944.732-2.592,1.26-.648.529-1.116,1.105-1.404,1.728-.288.625-.432,1.272-.432,1.944s.144,1.332.432,1.98.767,1.224,1.44,1.728c.672.504,1.536.912,2.592,1.224,1.055.313,2.351.468,3.888.468Z"/>
    <path class="cls-2" d="m254.571,10.36v44.64h-24.911V10.36h24.911Zm-.071,27.504l3.888-19.368c.432-2.063,1.283-3.78,2.556-5.148,1.271-1.368,2.772-2.412,4.5-3.132,1.729-.72,3.504-1.163,5.328-1.332,1.824-.167,3.504-.095,5.04.216,1.536.312,2.76.828,3.672,1.548l-5.472,26.784c-1.393-1.152-3.085-1.944-5.076-2.376-1.992-.432-3.996-.587-6.012-.468-2.016.121-3.792.468-5.328,1.044-1.537.576-2.568,1.321-3.096,2.232Z"/>
    <path class="cls-2" d="m311.091,38.728c2.544,0,4.512-.456,5.904-1.368,1.392-.911,2.111-2.16,2.16-3.744l22.248,7.272c-.864,3.024-2.7,5.772-5.508,8.244-2.809,2.473-6.349,4.428-10.62,5.868-4.273,1.44-9.049,2.16-14.328,2.16-4.513,0-8.725-.504-12.636-1.512-3.913-1.008-7.345-2.531-10.296-4.572-2.952-2.04-5.269-4.596-6.948-7.668-1.681-3.071-2.521-6.648-2.521-10.728s.84-7.656,2.521-10.728c1.68-3.071,3.996-5.627,6.948-7.668,2.951-2.04,6.396-3.564,10.331-4.572,3.936-1.008,8.137-1.512,12.601-1.512,4.56,0,8.748.504,12.563,1.512,3.816,1.008,7.104,2.556,9.864,4.644,2.76,2.088,4.896,4.729,6.408,7.92,1.512,3.193,2.268,6.973,2.268,11.34h-39.312v.072c0,.72.191,1.393.576,2.016.384.625.924,1.164,1.62,1.62.695.457,1.559.804,2.592,1.044,1.031.241,2.22.36,3.563.36Zm-.144-12.312c-2.353,0-4.297.421-5.832,1.26-1.537.841-2.304,2.029-2.304,3.564v.144h16.128c.047,0,.071-.011.071-.036v-.108c0-.768-.204-1.452-.611-2.052-.408-.6-.973-1.104-1.692-1.512-.72-.407-1.572-.72-2.556-.936-.984-.216-2.052-.324-3.204-.324Z"/>
    <path class="cls-2" d="m385.395,55v-23.112c0-.912-.24-1.704-.72-2.376-.48-.672-1.128-1.224-1.944-1.656s-1.728-.756-2.735-.972c-1.008-.216-2.064-.324-3.168-.324-2.784,0-4.86.552-6.229,1.656-1.368,1.105-2.052,2.329-2.052,3.672,0,1.008.3,1.92.9,2.736.6.817,1.512,1.476,2.735,1.98,1.225.504,2.772.756,4.645.756,2.016,0,3.815-.36,5.399-1.08,1.584-.72,2.616-1.896,3.097-3.528l-5.761,22.248c-1.536.384-3,.659-4.392.828-1.393.167-3,.252-4.824.252-3.696,0-7.176-.517-10.439-1.548-3.265-1.032-6.133-2.556-8.604-4.572-2.473-2.016-4.417-4.464-5.832-7.344-1.416-2.88-2.124-6.167-2.124-9.864,0-3.168.504-6.012,1.513-8.532,1.008-2.52,2.387-4.716,4.14-6.588,1.752-1.872,3.78-3.431,6.084-4.68,2.304-1.248,4.764-2.171,7.38-2.772,2.615-.6,5.268-.9,7.956-.9,1.104,0,2.232.049,3.384.144,1.152.097,2.279.241,3.384.432,1.104.192,2.148.457,3.133.792.982.336,1.896.745,2.735,1.224.84.48,1.572,1.033,2.196,1.656.047.048.083.061.108.036.023-.023.035-.06.035-.108V1h24.912v54h-24.912Z"/>
  </g>
</svg>